<svg version="1.1" xmlns="http://www.w3.org/2000/svg" viewBox="0 0 2801.4825038583767 1743.2605540757068" width="5602.9650077167535" height="3486.5211081514135">
  <!-- svg-source:excalidraw -->
  
  <defs>
    <style class="style-fonts">
      @font-face {
        font-family: "Virgil";
        src: url("https://excalidraw.com/Virgil.woff2");
      }
      @font-face {
        font-family: "Cascadia";
        src: url("https://excalidraw.com/Cascadia.woff2");
      }
    </style>
    
  </defs>
  <rect x="0" y="0" width="2801.4825038583767" height="1743.2605540757068" fill="#ffffff"></rect><g stroke-linecap="round"><g transform="translate(213.86250874118923 551) rotate(0 -0.0416162074834574 223.0289697412461)"><path d="M0.08 0.11 C0.09 74.44, 0.01 371.59, -0.03 445.89 M-0.06 0.05 C-0.05 74.4, -0.19 371.69, -0.16 446.01" stroke="#1e1e1e" stroke-width="1" fill="none"></path></g></g><mask></mask><g stroke-linecap="round"><g transform="translate(177.86250874118923 964) rotate(0 310.0518589470894 0.006092089687626867)"><path d="M0.1 -0.1 C103.42 -0.08, 516.53 0.07, 619.87 0.07 M-0.02 0.17 C103.34 0.14, 516.77 -0.12, 620.13 -0.16" stroke="#1e1e1e" stroke-width="1" fill="none"></path></g></g><mask></mask><g stroke-linecap="round" transform="translate(409.86250874118923 713) rotate(0 7.5 7)"><path d="M2.94 1.23 C2.94 1.23, 2.94 1.23, 2.94 1.23 M2.94 1.23 C2.94 1.23, 2.94 1.23, 2.94 1.23 M0.71 9.9 C2.35 7.78, 4.43 5.64, 8.59 0.84 M0.71 9.9 C3.34 6.88, 6.02 3.87, 8.59 0.84 M3.73 12.52 C6.72 9.01, 9.89 5.31, 12.92 1.95 M3.73 12.52 C6.83 8.89, 10.19 5.17, 12.92 1.95 M8.06 13.64 C10.65 10.39, 13.19 7.64, 15.28 5.33 M8.06 13.64 C10.32 10.94, 12.69 8.21, 15.28 5.33 M0.46 10.14 C0.46 10.14, 0.46 10.14, 0.46 10.14 M0.46 10.14 C0.46 10.14, 0.46 10.14, 0.46 10.14 M9.88 13.03 C6.47 10.35, 3.58 7.55, 0.82 5.15 M9.88 13.03 C7.52 10.92, 4.94 8.85, 0.82 5.15 M13.26 10.66 C9.87 7.96, 6.63 4.69, 2.69 1.48 M13.26 10.66 C10.96 8.62, 8.57 6.57, 2.69 1.48 M15.13 6.99 C12.95 4.91, 10.36 2.92, 6.82 -0.23 M15.13 6.99 C12.22 4.61, 9.36 2.08, 6.82 -0.23" stroke="#ffc9c9" stroke-width="0.5" fill="none"></path><path d="M7.58 -0.06 C9.09 -0.1, 11.3 0.88, 12.52 1.86 C13.74 2.83, 14.68 4.34, 14.89 5.81 C15.09 7.27, 14.6 9.33, 13.75 10.64 C12.9 11.94, 11.29 13.13, 9.79 13.62 C8.29 14.11, 6.26 14.1, 4.77 13.57 C3.27 13.04, 1.59 11.77, 0.8 10.44 C0 9.1, -0.33 7.07, 0 5.57 C0.32 4.08, 1.48 2.42, 2.74 1.47 C4 0.52, 6.73 0.1, 7.57 -0.13 C8.4 -0.37, 7.74 -0.05, 7.75 0.06 M6.79 0.2 C8.3 0, 10.67 0.31, 12.01 1.17 C13.35 2.02, 14.43 3.82, 14.83 5.33 C15.22 6.84, 15.1 8.84, 14.39 10.21 C13.68 11.58, 12.13 13.03, 10.59 13.57 C9.05 14.11, 6.72 13.92, 5.14 13.45 C3.57 12.98, 2.01 11.97, 1.13 10.74 C0.24 9.52, -0.37 7.6, -0.16 6.1 C0.06 4.61, 1.23 2.78, 2.42 1.76 C3.61 0.74, 6.26 0.25, 6.99 -0.03 C7.71 -0.31, 6.77 -0.03, 6.79 0.1" stroke="#1e1e1e" stroke-width="1" fill="none"></path></g><g stroke-linecap="round" transform="translate(499.36250874118923 677) rotate(0 7.5 7)"><path d="M3.1 1.37 C3.1 1.37, 3.1 1.37, 3.1 1.37 M3.1 1.37 C3.1 1.37, 3.1 1.37, 3.1 1.37 M1.53 9.28 C4.26 6.24, 6.7 3.37, 9.4 0.22 M1.53 9.28 C3.43 7.14, 5.43 4.97, 9.4 0.22 M3.89 12.66 C7.32 9.01, 10.65 4.89, 13.08 2.09 M3.89 12.66 C7.09 8.91, 10.42 5.26, 13.08 2.09 M7.57 14.53 C9.93 11.76, 12.41 9.13, 15.44 5.47 M7.57 14.53 C10.4 11.17, 13.4 7.87, 15.44 5.47 M4.37 13.26 C4.37 13.26, 4.37 13.26, 4.37 13.26 M4.37 13.26 C4.37 13.26, 4.37 13.26, 4.37 13.26 M10.01 12.87 C6.26 9.9, 2.7 6.49, 0.96 5 M10.01 12.87 C6.95 10.15, 4.04 7.67, 0.96 5 M13.39 10.51 C10.98 8.21, 8.33 6.43, 2.83 1.32 M13.39 10.51 C10.33 7.75, 7.02 4.92, 2.83 1.32 M15.26 6.83 C12.2 4.29, 9.59 1.62, 6.96 -0.39 M15.26 6.83 C12.8 4.68, 10.5 2.73, 6.96 -0.39" stroke="#ffc9c9" stroke-width="0.5" fill="none"></path><path d="M7.81 -0.07 C9.34 -0.07, 11.28 0.79, 12.48 1.81 C13.68 2.83, 14.79 4.54, 15 6.04 C15.21 7.53, 14.67 9.52, 13.76 10.79 C12.84 12.05, 11.05 13.21, 9.52 13.66 C7.99 14.1, 6 14.01, 4.58 13.44 C3.15 12.87, 1.7 11.58, 0.98 10.23 C0.26 8.89, -0.1 6.86, 0.26 5.37 C0.62 3.88, 1.89 2.23, 3.16 1.31 C4.43 0.39, 7.05 0.05, 7.88 -0.15 C8.72 -0.35, 8.18 -0.03, 8.17 0.1 M7.75 -0.02 C9.23 -0.04, 11.14 0.77, 12.36 1.75 C13.58 2.74, 14.83 4.45, 15.09 5.91 C15.35 7.37, 14.8 9.21, 13.92 10.5 C13.04 11.79, 11.36 13.14, 9.81 13.66 C8.26 14.18, 6.13 14.19, 4.63 13.63 C3.13 13.08, 1.58 11.71, 0.81 10.34 C0.04 8.98, -0.32 6.93, 0.01 5.45 C0.34 3.98, 1.5 2.43, 2.8 1.5 C4.09 0.58, 6.91 0.1, 7.77 -0.1 C8.63 -0.29, 7.96 0.26, 7.94 0.35" stroke="#1e1e1e" stroke-width="1" fill="none"></path></g><g stroke-linecap="round" transform="translate(422.36250874118923 766) rotate(0 7.5 7)"><path d="M2.25 1.95 C2.25 1.95, 2.25 1.95, 2.25 1.95 M2.25 1.95 C2.25 1.95, 2.25 1.95, 2.25 1.95 M1.33 9.1 C4.18 5.88, 6.95 2.56, 8.54 0.8 M1.33 9.1 C3.06 7.12, 4.8 5.07, 8.54 0.8 M3.69 12.48 C5.74 10.19, 7.88 7.66, 12.22 2.67 M3.69 12.48 C5.88 10.15, 7.96 7.76, 12.22 2.67 M7.37 14.35 C10.46 10.83, 13.17 7.38, 15.24 5.3 M7.37 14.35 C9.54 11.82, 11.82 9.18, 15.24 5.3 M1.19 10.83 C1.19 10.83, 1.19 10.83, 1.19 10.83 M1.19 10.83 C1.19 10.83, 1.19 10.83, 1.19 10.83 M9.85 13.06 C6.63 10.25, 3.08 7.05, 0.79 5.19 M9.85 13.06 C7.36 10.96, 4.84 8.83, 0.79 5.19 M13.23 10.7 C9.29 6.93, 4.91 3.6, 2.66 1.51 M13.23 10.7 C9.98 8.08, 7.01 5.25, 2.66 1.51 M15.1 7.02 C13.42 5.7, 11.6 3.88, 6.8 -0.2 M15.1 7.02 C12.05 4.43, 9 1.7, 6.8 -0.2" stroke="#ffc9c9" stroke-width="0.5" fill="none"></path><path d="M7.03 -0.07 C8.51 -0.26, 10.46 0.55, 11.76 1.44 C13.06 2.32, 14.44 3.78, 14.82 5.22 C15.21 6.65, 14.8 8.71, 14.08 10.06 C13.37 11.41, 12.02 12.67, 10.56 13.31 C9.09 13.95, 6.86 14.29, 5.31 13.89 C3.77 13.48, 2.13 12.15, 1.26 10.9 C0.4 9.65, -0.05 7.89, 0.12 6.39 C0.29 4.89, 1.16 2.94, 2.3 1.89 C3.43 0.84, 6.14 0.37, 6.93 0.1 C7.72 -0.17, 7.03 0.15, 7.03 0.25 M8.15 0.13 C9.69 0.1, 11.34 0.66, 12.48 1.68 C13.62 2.71, 14.8 4.79, 15.01 6.29 C15.21 7.8, 14.57 9.51, 13.72 10.71 C12.86 11.92, 11.4 13.09, 9.88 13.51 C8.36 13.92, 6.1 13.77, 4.61 13.21 C3.11 12.65, 1.69 11.49, 0.91 10.16 C0.14 8.82, -0.42 6.68, -0.04 5.18 C0.34 3.68, 1.87 1.99, 3.2 1.15 C4.53 0.31, 7.17 0.35, 7.97 0.15 C8.77 -0.06, 8.02 -0.22, 7.99 -0.1" stroke="#1e1e1e" stroke-width="1" fill="none"></path></g><g stroke-linecap="round" transform="translate(544.3625087411892 691) rotate(0 7.5 7)"><path d="M2.96 1.25 C2.96 1.25, 2.96 1.25, 2.96 1.25 M2.96 1.25 C2.96 1.25, 2.96 1.25, 2.96 1.25 M0.73 9.91 C2.67 7.5, 4.96 5.21, 9.26 0.1 M0.73 9.91 C3.18 7.22, 5.4 4.46, 9.26 0.1 M3.75 12.54 C6.13 9.87, 8.45 7.65, 12.94 1.97 M3.75 12.54 C6.01 9.84, 8.49 7.15, 12.94 1.97 M8.08 13.65 C10.76 10.89, 13.14 7.71, 14.64 6.1 M8.08 13.65 C10.4 11.07, 12.47 8.6, 14.64 6.1 M1.31 10.69 C1.31 10.69, 1.31 10.69, 1.31 10.69 M1.31 10.69 C1.31 10.69, 1.31 10.69, 1.31 10.69 M10.73 13.57 C8.46 11.45, 6.21 9.42, 0.92 5.04 M10.73 13.57 C7.28 10.69, 3.98 7.79, 0.92 5.04 M13.35 10.55 C10.18 7.67, 7.36 5.17, 2.78 1.37 M13.35 10.55 C9.88 7.44, 6.35 4.6, 2.78 1.37 M15.22 6.88 C12.16 4.27, 9.12 1.67, 7.67 0.32 M15.22 6.88 C13.48 5.4, 11.75 3.89, 7.67 0.32" stroke="#ffc9c9" stroke-width="0.5" fill="none"></path><path d="M7.81 -0.04 C9.36 -0.1, 11.28 0.6, 12.44 1.62 C13.6 2.64, 14.55 4.61, 14.79 6.09 C15.02 7.57, 14.67 9.22, 13.87 10.51 C13.07 11.79, 11.49 13.3, 9.98 13.77 C8.47 14.25, 6.33 13.92, 4.83 13.36 C3.33 12.8, 1.78 11.66, 0.98 10.4 C0.18 9.14, -0.27 7.28, 0.03 5.79 C0.33 4.3, 1.5 2.42, 2.78 1.46 C4.06 0.51, 6.91 0.28, 7.72 0.07 C8.54 -0.14, 7.7 0.1, 7.68 0.19 M7.65 0.2 C9.18 0.18, 11.29 1.1, 12.49 2.08 C13.69 3.06, 14.6 4.63, 14.85 6.08 C15.09 7.52, 14.8 9.5, 13.96 10.75 C13.11 11.99, 11.34 13.08, 9.78 13.55 C8.21 14.01, 6.03 14.09, 4.58 13.55 C3.13 13.01, 1.76 11.65, 1.07 10.32 C0.38 8.99, 0.09 7.09, 0.44 5.58 C0.8 4.07, 1.99 2.17, 3.2 1.26 C4.41 0.36, 6.95 0.38, 7.71 0.17 C8.47 -0.04, 7.74 -0.09, 7.73 0" stroke="#1e1e1e" stroke-width="1" fill="none"></path></g><g stroke-linecap="round" transform="translate(542.3625087411892 616) rotate(0 7.5 7)"><path d="M3.14 1.4 C3.14 1.4, 3.14 1.4, 3.14 1.4 M3.14 1.4 C3.14 1.4, 3.14 1.4, 3.14 1.4 M0.91 10.06 C2.84 7.87, 4.88 5.8, 9.44 0.25 M0.91 10.06 C2.94 7.77, 4.75 5.55, 9.44 0.25 M3.93 12.69 C6.4 9.62, 9.35 6.56, 13.11 2.12 M3.93 12.69 C6.67 9.62, 9.55 6.2, 13.11 2.12 M7.6 14.56 C9.7 12.1, 11.97 9.61, 14.82 6.26 M7.6 14.56 C10.54 11.29, 13.31 8.01, 14.82 6.26 M0.55 10.04 C0.55 10.04, 0.55 10.04, 0.55 10.04 M0.55 10.04 C0.55 10.04, 0.55 10.04, 0.55 10.04 M9.97 12.92 C7.26 10.32, 4.18 7.73, 0.91 5.05 M9.97 12.92 C7.4 10.66, 4.72 8.35, 0.91 5.05 M13.35 10.56 C10.57 7.92, 7.71 5.88, 2.78 1.38 M13.35 10.56 C11.03 8.56, 8.78 6.61, 2.78 1.38 M15.22 6.89 C12.79 4.68, 10.48 2.91, 6.91 -0.33 M15.22 6.89 C12.81 4.76, 10.36 2.58, 6.91 -0.33" stroke="#ffc9c9" stroke-width="0.5" fill="none"></path><path d="M8.16 0.15 C9.7 0.16, 11.6 0.89, 12.73 1.89 C13.85 2.89, 14.74 4.65, 14.91 6.15 C15.08 7.65, 14.61 9.63, 13.74 10.88 C12.87 12.13, 11.21 13.2, 9.69 13.65 C8.17 14.1, 6.13 14.15, 4.63 13.57 C3.13 12.99, 1.39 11.55, 0.68 10.15 C-0.02 8.76, -0.02 6.67, 0.38 5.22 C0.78 3.77, 1.81 2.29, 3.09 1.45 C4.37 0.61, 7.23 0.4, 8.06 0.17 C8.89 -0.07, 8.07 -0.07, 8.09 0.04 M7.45 0.06 C9.06 -0.04, 11.46 0.63, 12.67 1.63 C13.88 2.63, 14.52 4.58, 14.7 6.07 C14.89 7.57, 14.58 9.34, 13.78 10.61 C12.98 11.89, 11.39 13.28, 9.88 13.74 C8.36 14.2, 6.16 13.94, 4.67 13.38 C3.19 12.81, 1.75 11.67, 0.97 10.36 C0.19 9.06, -0.34 7.04, -0.01 5.55 C0.31 4.06, 1.65 2.38, 2.94 1.41 C4.22 0.45, 6.92 0.01, 7.68 -0.25 C8.43 -0.5, 7.47 -0.29, 7.46 -0.12" stroke="#1e1e1e" stroke-width="1" fill="none"></path></g><g stroke-linecap="round" transform="translate(625.3625087411892 660) rotate(0 7.5 7)"><path d="M2.21 1.92 C2.21 1.92, 2.21 1.92, 2.21 1.92 M2.21 1.92 C2.21 1.92, 2.21 1.92, 2.21 1.92 M0.63 9.82 C2.6 7.44, 4.42 5.28, 8.51 0.77 M0.63 9.82 C3.61 6.29, 6.87 2.65, 8.51 0.77 M3.65 12.45 C6.09 9.38, 8.65 6.56, 12.84 1.88 M3.65 12.45 C6.25 9.39, 9.13 6.28, 12.84 1.88 M7.98 13.56 C9.68 11.82, 11.26 9.96, 15.2 5.26 M7.98 13.56 C9.54 11.8, 11.07 9.91, 15.2 5.26 M1.22 10.79 C1.22 10.79, 1.22 10.79, 1.22 10.79 M1.22 10.79 C1.22 10.79, 1.22 10.79, 1.22 10.79 M9.88 13.02 C7.66 10.93, 5.39 9.32, 0.83 5.15 M9.88 13.02 C6.7 10.33, 3.77 7.7, 0.83 5.15 M13.26 10.66 C10.93 8.82, 8.75 6.65, 2.7 1.47 M13.26 10.66 C11.17 8.76, 9.01 6.9, 2.7 1.47 M15.13 6.98 C12.18 4.41, 8.66 1.35, 6.83 -0.24 M15.13 6.98 C12.65 4.85, 10.2 2.68, 6.83 -0.24" stroke="#ffc9c9" stroke-width="0.5" fill="none"></path><path d="M7.39 -0.14 C8.94 -0.25, 11.15 0.62, 12.41 1.59 C13.67 2.57, 14.63 4.23, 14.93 5.71 C15.23 7.2, 15.02 9.19, 14.2 10.5 C13.37 11.81, 11.49 13.01, 9.98 13.55 C8.47 14.1, 6.65 14.26, 5.15 13.76 C3.64 13.26, 1.78 11.86, 0.93 10.53 C0.07 9.21, -0.26 7.29, 0 5.81 C0.26 4.32, 1.23 2.6, 2.46 1.62 C3.69 0.65, 6.51 0.22, 7.38 -0.03 C8.24 -0.29, 7.64 -0.02, 7.66 0.09 M7.58 -0.25 C9.12 -0.38, 11.02 0.69, 12.27 1.67 C13.52 2.64, 14.77 4.13, 15.08 5.59 C15.39 7.04, 14.94 9.03, 14.15 10.4 C13.35 11.77, 11.87 13.26, 10.3 13.81 C8.74 14.37, 6.27 14.25, 4.75 13.73 C3.24 13.2, 2.01 11.96, 1.21 10.67 C0.42 9.38, -0.27 7.55, -0.02 6.02 C0.23 4.48, 1.47 2.47, 2.71 1.44 C3.95 0.42, 6.68 0.11, 7.43 -0.12 C8.18 -0.35, 7.21 -0.11, 7.21 0.05" stroke="#1e1e1e" stroke-width="1" fill="none"></path></g><g stroke-linecap="round" transform="translate(498.36250874118923 742) rotate(0 7.5 7)"><path d="M2.18 1.9 C2.18 1.9, 2.18 1.9, 2.18 1.9 M2.18 1.9 C2.18 1.9, 2.18 1.9, 2.18 1.9 M1.27 9.05 C3.76 6.05, 6.19 3.52, 8.48 0.75 M1.27 9.05 C3.85 6.11, 6.44 3.24, 8.48 0.75 M3.63 12.43 C6.46 9.29, 9.37 6, 12.81 1.86 M3.63 12.43 C6.44 9.26, 9.46 5.72, 12.81 1.86 M7.3 14.3 C8.89 12.35, 10.51 10.45, 14.52 6 M7.3 14.3 C9.07 12.33, 10.74 10.49, 14.52 6 M1.3 10.7 C1.3 10.7, 1.3 10.7, 1.3 10.7 M1.3 10.7 C1.3 10.7, 1.3 10.7, 1.3 10.7 M10.71 13.59 C8.2 11.47, 5.41 8.76, 0.9 5.06 M10.71 13.59 C7.26 10.54, 3.97 7.6, 0.9 5.06 M13.34 10.57 C10.81 8.6, 8.47 6.65, 2.77 1.38 M13.34 10.57 C10.32 7.9, 7.37 5.25, 2.77 1.38 M14.45 6.24 C11.73 3.65, 8.99 1.28, 6.91 -0.32 M14.45 6.24 C11.73 3.94, 9.07 1.45, 6.91 -0.32" stroke="#ffc9c9" stroke-width="0.5" fill="none"></path><path d="M7.16 -0.09 C8.65 -0.26, 10.75 0.4, 12 1.32 C13.25 2.25, 14.28 4.01, 14.65 5.46 C15.01 6.92, 14.91 8.75, 14.18 10.07 C13.46 11.39, 11.77 12.77, 10.32 13.39 C8.86 14.01, 6.96 14.24, 5.45 13.79 C3.94 13.33, 2.14 11.91, 1.25 10.66 C0.35 9.4, -0.09 7.75, 0.08 6.28 C0.24 4.81, 1.04 2.89, 2.24 1.83 C3.44 0.77, 6.46 0.2, 7.28 -0.1 C8.1 -0.39, 7.19 -0.08, 7.16 0.05 M7.26 0.06 C8.82 -0.04, 11.29 0.68, 12.52 1.6 C13.76 2.52, 14.41 4.07, 14.68 5.56 C14.95 7.05, 14.89 9.2, 14.16 10.53 C13.43 11.86, 11.8 13.08, 10.31 13.55 C8.82 14.03, 6.8 13.89, 5.22 13.37 C3.63 12.85, 1.66 11.68, 0.79 10.44 C-0.07 9.2, -0.24 7.43, 0.03 5.94 C0.31 4.46, 1.23 2.53, 2.46 1.54 C3.69 0.55, 6.55 0.26, 7.41 0.01 C8.28 -0.23, 7.64 -0.01, 7.65 0.07" stroke="#1e1e1e" stroke-width="1" fill="none"></path></g><g stroke-linecap="round" transform="translate(599.3625087411892 588) rotate(0 7.5 7)"><path d="M2.94 1.23 C2.94 1.23, 2.94 1.23, 2.94 1.23 M2.94 1.23 C2.94 1.23, 2.94 1.23, 2.94 1.23 M0.71 9.89 C3.83 6.26, 7.1 2.77, 8.58 0.84 M0.71 9.89 C3.52 6.59, 6.54 3.22, 8.58 0.84 M3.73 12.52 C5.74 9.75, 8 7.34, 12.91 1.95 M3.73 12.52 C5.79 10.22, 7.82 7.96, 12.91 1.95 M8.06 13.63 C9.91 11.48, 11.83 9, 14.62 6.09 M8.06 13.63 C10.13 11.25, 12.36 8.75, 14.62 6.09 M1.18 10.84 C1.18 10.84, 1.18 10.84, 1.18 10.84 M1.18 10.84 C1.18 10.84, 1.18 10.84, 1.18 10.84 M9.84 13.07 C6.73 10.6, 3.99 8.05, 0.79 5.19 M9.84 13.07 C7.08 10.56, 4.14 8.01, 0.79 5.19 M13.22 10.7 C10.78 9.01, 8.96 6.79, 2.66 1.52 M13.22 10.7 C9.43 7.44, 5.56 4.13, 2.66 1.52 M15.09 7.03 C12.29 4.4, 9.41 1.88, 6.79 -0.19 M15.09 7.03 C12.98 5.29, 10.94 3.35, 6.79 -0.19" stroke="#ffc9c9" stroke-width="0.5" fill="none"></path><path d="M7.52 -0.05 C9.06 -0.13, 11.12 0.78, 12.33 1.77 C13.54 2.76, 14.54 4.45, 14.79 5.88 C15.05 7.32, 14.64 9.11, 13.86 10.38 C13.08 11.64, 11.6 12.95, 10.11 13.46 C8.61 13.97, 6.44 13.9, 4.91 13.42 C3.37 12.95, 1.68 11.84, 0.9 10.59 C0.11 9.34, -0.12 7.41, 0.18 5.9 C0.49 4.38, 1.47 2.47, 2.7 1.51 C3.92 0.55, 6.7 0.39, 7.53 0.14 C8.37 -0.11, 7.67 -0.11, 7.69 0 M7.53 -0.25 C9.04 -0.38, 11.11 0.57, 12.36 1.57 C13.62 2.58, 14.76 4.27, 15.06 5.76 C15.37 7.26, 14.99 9.25, 14.19 10.53 C13.39 11.82, 11.83 12.94, 10.28 13.49 C8.72 14.04, 6.36 14.38, 4.85 13.84 C3.35 13.3, 2.05 11.6, 1.23 10.25 C0.41 8.91, -0.31 7.21, -0.09 5.77 C0.13 4.32, 1.33 2.56, 2.57 1.59 C3.82 0.63, 6.57 0.24, 7.36 -0.03 C8.15 -0.3, 7.32 -0.16, 7.32 -0.03" stroke="#1e1e1e" stroke-width="1" fill="none"></path></g><g stroke-linecap="round"><g transform="translate(239.86250874118923 861) rotate(0 216.99420714205098 -129.03620744608338)"><path d="M0.31 -0.18 C72.81 -42.97, 362.61 -215.13, 434.97 -257.89 M-0.98 -1.32 C71.45 -43.89, 362.03 -214.5, 434.53 -256.82" stroke="#1e1e1e" stroke-width="1" fill="none"></path></g></g><mask></mask><g transform="translate(179.86250874118923 528) rotate(0 4.690000057220459 12.5)"><text x="0" y="0" font-family="Virgil, Segoe UI Emoji" font-size="20px" fill="#1e1e1e" text-anchor="start" style="white-space: pre;" direction="ltr" dominant-baseline="text-before-edge">y</text></g><g transform="translate(778.8825087221157 983.5) rotate(0 5.619999885559082 12.5)"><text x="0" y="0" font-family="Virgil, Segoe UI Emoji" font-size="20px" fill="#1e1e1e" text-anchor="start" style="white-space: pre;" direction="ltr" dominant-baseline="text-before-edge">x</text></g><g transform="translate(642.8625087411892 431) rotate(0 119.43000793457031 62.5)"><text x="0" y="0" font-family="Virgil, Segoe UI Emoji" font-size="20px" fill="#1e1e1e" text-anchor="start" style="white-space: pre;" direction="ltr" dominant-baseline="text-before-edge">y = mx + b</text><text x="0" y="25" font-family="Virgil, Segoe UI Emoji" font-size="20px" fill="#1e1e1e" text-anchor="start" style="white-space: pre;" direction="ltr" dominant-baseline="text-before-edge">y - dependent variable</text><text x="0" y="50" font-family="Virgil, Segoe UI Emoji" font-size="20px" fill="#1e1e1e" text-anchor="start" style="white-space: pre;" direction="ltr" dominant-baseline="text-before-edge">x - indépendant variable</text><text x="0" y="75" font-family="Virgil, Segoe UI Emoji" font-size="20px" fill="#1e1e1e" text-anchor="start" style="white-space: pre;" direction="ltr" dominant-baseline="text-before-edge">m - slope </text><text x="0" y="100" font-family="Virgil, Segoe UI Emoji" font-size="20px" fill="#1e1e1e" text-anchor="start" style="white-space: pre;" direction="ltr" dominant-baseline="text-before-edge">b - intercept </text></g><g transform="translate(922.8625087411892 563) rotate(0 135.73001098632812 12.5)"><text x="0" y="0" font-family="Virgil, Segoe UI Emoji" font-size="20px" fill="#1e1e1e" text-anchor="start" style="white-space: pre;" direction="ltr" dominant-baseline="text-before-edge">MSE =    (yi - (mxi +b))^2 </text></g><g transform="translate(980.8625087411892 644) rotate(0 73.59000396728516 12.5)"><text x="0" y="0" font-family="Virgil, Segoe UI Emoji" font-size="20px" fill="#1e1e1e" text-anchor="start" style="white-space: pre;" direction="ltr" dominant-baseline="text-before-edge">y hat = mxi +b</text></g><g transform="translate(1000.8625087411892 511) rotate(0 138.76998901367188 12.5)"><text x="0" y="0" font-family="Virgil, Segoe UI Emoji" font-size="20px" fill="#1e1e1e" text-anchor="start" style="white-space: pre;" direction="ltr" dominant-baseline="text-before-edge">Cost Function/Loss Function</text></g><g stroke-linecap="round"><g transform="translate(505.86250874118923 748) rotate(0 -0.05802288927043264 -24.077047730292634)"><path d="M0 0.01 C0.02 -8, 0.07 -39.95, 0.06 -47.94 M-0.18 -0.11 C-0.16 -8.17, -0.02 -40.15, -0.03 -48.17" stroke="#1e1e1e" stroke-width="1" fill="none"></path></g></g><mask></mask><g stroke-linecap="round"><g transform="translate(552.8625087411892 683) rotate(0 -0.04519177716156264 7.573092107425509)"><path d="M-0.14 0.04 C-0.13 2.52, 0.03 12.53, 0.04 15.02 M0.05 -0.07 C0.05 2.43, -0.02 12.68, -0.06 15.21" stroke="#1e1e1e" stroke-width="1" fill="none"></path></g></g><mask></mask><g stroke-linecap="round"><g transform="translate(428.86250874118923 774) rotate(0 -0.5209303196252222 -10.978372313016507)"><path d="M-0.07 -0.09 C-0.26 -3.76, -0.89 -18.29, -1.06 -21.92 M0.17 0.19 C-0.06 -3.53, -1.05 -18.42, -1.21 -22.14" stroke="#1e1e1e" stroke-width="1" fill="none"></path></g></g><mask></mask><g stroke-linecap="round" transform="translate(544.3625087411892 668) rotate(0 7.5 7)"><path d="M2.92 1.21 C2.92 1.21, 2.92 1.21, 2.92 1.21 M2.92 1.21 C2.92 1.21, 2.92 1.21, 2.92 1.21 M0.69 9.88 C3.48 6.61, 6.59 3.03, 8.56 0.82 M0.69 9.88 C3.41 6.7, 6.21 3.4, 8.56 0.82 M3.71 12.5 C7.24 8.55, 10.44 4.68, 12.89 1.93 M3.71 12.5 C6.15 9.76, 8.55 6.68, 12.89 1.93 M7.38 14.37 C8.81 12.38, 10.47 10.74, 14.6 6.07 M7.38 14.37 C9.44 12.01, 11.57 9.61, 14.6 6.07 M0.63 9.94 C0.63 9.94, 0.63 9.94, 0.63 9.94 M0.63 9.94 C0.63 9.94, 0.63 9.94, 0.63 9.94 M10.05 12.83 C7.73 10.67, 4.97 8.48, 0.99 4.95 M10.05 12.83 C7.8 10.82, 5.47 8.72, 0.99 4.95 M13.43 10.46 C10.22 7.89, 7.28 5.03, 2.86 1.28 M13.43 10.46 C10.92 8.46, 8.48 6.08, 2.86 1.28 M15.3 6.79 C13.54 5.4, 11.92 3.82, 7.75 0.23 M15.3 6.79 C12.51 4.41, 9.73 2, 7.75 0.23" stroke="#a5d8ff" stroke-width="0.5" fill="none"></path><path d="M7.72 0.08 C9.24 -0.01, 11.33 0.64, 12.53 1.63 C13.73 2.63, 14.72 4.57, 14.93 6.06 C15.14 7.56, 14.67 9.32, 13.8 10.59 C12.92 11.87, 11.22 13.28, 9.68 13.74 C8.14 14.2, 6.04 13.94, 4.57 13.34 C3.11 12.74, 1.59 11.45, 0.88 10.15 C0.17 8.86, -0.03 7.04, 0.3 5.57 C0.62 4.09, 1.59 2.22, 2.84 1.31 C4.09 0.41, 6.96 0.34, 7.8 0.13 C8.63 -0.09, 7.83 -0.08, 7.84 0.04 M7.7 0 C9.26 -0.05, 11.56 0.61, 12.78 1.6 C13.99 2.59, 14.84 4.47, 14.98 5.96 C15.12 7.46, 14.48 9.34, 13.6 10.57 C12.72 11.81, 11.24 12.93, 9.72 13.39 C8.2 13.85, 5.99 13.87, 4.49 13.34 C2.99 12.82, 1.42 11.49, 0.73 10.23 C0.04 8.97, 0.01 7.21, 0.35 5.76 C0.7 4.31, 1.59 2.46, 2.82 1.54 C4.05 0.61, 6.9 0.46, 7.75 0.2 C8.6 -0.06, 7.95 -0.17, 7.93 -0.04" stroke="#1e1e1e" stroke-width="1" fill="none"></path></g><g stroke-linecap="round" transform="translate(498.36250874118923 698) rotate(0 7.5 7)"><path d="M2.26 1.97 C2.26 1.97, 2.26 1.97, 2.26 1.97 M2.26 1.97 C2.26 1.97, 2.26 1.97, 2.26 1.97 M0.69 9.87 C3.14 7.38, 5.36 4.84, 8.56 0.82 M0.69 9.87 C2.71 7.68, 4.64 5.26, 8.56 0.82 M3.71 12.5 C6.42 9.43, 8.89 6.27, 12.89 1.93 M3.71 12.5 C5.94 10.04, 8.01 7.37, 12.89 1.93 M8.04 13.61 C9.87 11.22, 12.1 9.19, 15.26 5.31 M8.04 13.61 C10.13 11.17, 12.43 8.71, 15.26 5.31 M1.27 10.73 C1.27 10.73, 1.27 10.73, 1.27 10.73 M1.27 10.73 C1.27 10.73, 1.27 10.73, 1.27 10.73 M10.69 13.62 C7.02 10.1, 3.05 6.76, 0.88 5.09 M10.69 13.62 C7.87 11.16, 4.82 8.61, 0.88 5.09 M13.31 10.6 C9.3 6.93, 4.88 3.38, 2.74 1.42 M13.31 10.6 C10.6 8.34, 8.24 6.11, 2.74 1.42 M15.18 6.93 C13.32 5.16, 11.65 3.65, 6.88 -0.29 M15.18 6.93 C12.23 4.52, 9.43 2.03, 6.88 -0.29" stroke="#a5d8ff" stroke-width="0.5" fill="none"></path><path d="M7.46 0.05 C9.03 -0.06, 11.17 0.67, 12.43 1.6 C13.69 2.54, 14.82 4.19, 15.05 5.65 C15.28 7.11, 14.63 9.04, 13.82 10.37 C13 11.7, 11.65 13.12, 10.15 13.63 C8.64 14.13, 6.33 13.93, 4.8 13.4 C3.27 12.88, 1.74 11.7, 0.96 10.46 C0.17 9.22, -0.17 7.41, 0.09 5.94 C0.35 4.47, 1.29 2.61, 2.54 1.65 C3.78 0.68, 6.73 0.4, 7.56 0.15 C8.39 -0.1, 7.56 0.04, 7.53 0.13 M7.1 0.05 C8.62 -0.08, 10.78 0.46, 12.09 1.36 C13.39 2.26, 14.57 3.95, 14.93 5.45 C15.3 6.96, 15.09 8.99, 14.3 10.36 C13.52 11.73, 11.71 13.08, 10.22 13.67 C8.73 14.26, 6.88 14.39, 5.37 13.88 C3.85 13.37, 2.01 11.92, 1.13 10.59 C0.24 9.26, -0.16 7.39, 0.06 5.89 C0.27 4.39, 1.2 2.56, 2.44 1.6 C3.67 0.64, 6.64 0.37, 7.49 0.12 C8.33 -0.13, 7.56 -0.02, 7.53 0.09" stroke="#1e1e1e" stroke-width="1" fill="none"></path></g><g transform="translate(994.8625087411892 707) rotate(0 145.88999938964844 37.5)"><text x="0" y="0" font-family="Virgil, Segoe UI Emoji" font-size="20px" fill="#1e1e1e" text-anchor="start" style="white-space: pre;" direction="ltr" dominant-baseline="text-before-edge">Optimize - Gradient Decsent </text><text x="0" y="25" font-family="Virgil, Segoe UI Emoji" font-size="20px" fill="#1e1e1e" text-anchor="start" style="white-space: pre;" direction="ltr" dominant-baseline="text-before-edge"></text><text x="0" y="50" font-family="Virgil, Segoe UI Emoji" font-size="20px" fill="#1e1e1e" text-anchor="start" style="white-space: pre;" direction="ltr" dominant-baseline="text-before-edge">m and b </text></g><g transform="translate(743.8625087411892 811) rotate(0 328.0744323730469 21.328498368778583)"><text x="0" y="0" font-family="Virgil, Segoe UI Emoji" font-size="17.062798695022803px" fill="#1e1e1e" text-anchor="start" style="white-space: pre;" direction="ltr" dominant-baseline="text-before-edge">dError/db =  (yi - (mxi +1*b))^2 = 2(yi - (mxi +b))(-1) = 2(yi - (mxi +b))(-1)/N</text><text x="0" y="21.328498368778504" font-family="Virgil, Segoe UI Emoji" font-size="17.062798695022803px" fill="#1e1e1e" text-anchor="start" style="white-space: pre;" direction="ltr" dominant-baseline="text-before-edge">dError/dm =  (yi - (mxi +1*b))^2 = 2(yi - (mxi +b))(-xi) = 2(yi - (mxi +b))(-xi)/N</text></g><g transform="translate(953.8625087411892 947) rotate(0 191.40005493164062 25)"><text x="0" y="0" font-family="Virgil, Segoe UI Emoji" font-size="20px" fill="#1e1e1e" text-anchor="start" style="white-space: pre;" direction="ltr" dominant-baseline="text-before-edge">m = m - a* dError/db (0.01 * 10 = 0.1)</text><text x="0" y="25" font-family="Virgil, Segoe UI Emoji" font-size="20px" fill="#1e1e1e" text-anchor="start" style="white-space: pre;" direction="ltr" dominant-baseline="text-before-edge">b = b - a* dError/dm (0.01 * 10 = 0.1)</text></g><g transform="translate(934.8625087411892 1038) rotate(0 79.18000793457031 12.5)"><text x="0" y="0" font-family="Virgil, Segoe UI Emoji" font-size="20px" fill="#1e1e1e" text-anchor="start" style="white-space: pre;" direction="ltr" dominant-baseline="text-before-edge">a - leaning rate</text></g><g stroke-linecap="round"><g transform="translate(276.86250874118923 1087) rotate(0 -0.9409291158417545 215.48021996392754)"><path d="M-0.04 -0.11 C-0.37 71.75, -1.78 359.24, -2.1 431.07 M0.22 0.16 C-0.07 71.98, -1.44 359.04, -1.81 430.84" stroke="#1e1e1e" stroke-width="1" fill="none"></path></g></g><mask></mask><g stroke-linecap="round"><g transform="translate(280.86250874118923 1509) rotate(0 -135.21201485087204 111.77653128461907)"><path d="M0.44 0.22 C-44.58 37.55, -225.21 185.63, -270.29 222.82 M-0.79 -0.71 C-45.89 36.91, -225.95 187.28, -270.86 224.26" stroke="#1e1e1e" stroke-width="1" fill="none"></path></g></g><mask></mask><g stroke-linecap="round"><g transform="translate(272.86250874118923 1514) rotate(0 256.5248577451448 0.04107416233227923)"><path d="M0.08 0.04 C85.62 0.07, 427.63 0.16, 513.11 0.15 M-0.06 -0.06 C85.48 -0.07, 427.57 -0.06, 513.05 -0.04" stroke="#1e1e1e" stroke-width="1" fill="none"></path></g></g><mask></mask><g stroke-linecap="round"><g transform="translate(277.86250874118923 1513) rotate(0 180.5265898562502 -112.97118690843718)"><path d="M1.03 -0.32 C61.38 -37.52, 301 -186.28, 360.94 -223.67 M0.11 -1.53 C60.4 -39.07, 300.02 -188.59, 359.96 -225.63" stroke="#1e1e1e" stroke-width="1" fill="none"></path></g><g transform="translate(277.86250874118923 1513) rotate(0 180.5265898562502 -112.97118690843718)"><path d="M341.43 -202.03 C344.75 -207.08, 349.59 -212.32, 359.96 -225.63 M341.43 -202.03 C347.01 -206.65, 349.77 -213.84, 359.96 -225.63" stroke="#1e1e1e" stroke-width="1" fill="none"></path></g><g transform="translate(277.86250874118923 1513) rotate(0 180.5265898562502 -112.97118690843718)"><path d="M330.6 -219.46 C336.06 -221.07, 343.09 -222.77, 359.96 -225.63 M330.6 -219.46 C338.66 -219.74, 344.05 -222.68, 359.96 -225.63" stroke="#1e1e1e" stroke-width="1" fill="none"></path></g></g><mask></mask><g stroke-linecap="round"><g transform="translate(279.86250874118923 1513) rotate(0 -97.04895391513674 -75.84617429710897)"><path d="M-0.96 0.55 C-33.38 -25.01, -162.71 -126.88, -194.84 -152.24 M0.74 -0.21 C-31.27 -25.07, -160.05 -125.24, -192.57 -150.83" stroke="#1e1e1e" stroke-width="1" fill="none"></path></g><g transform="translate(279.86250874118923 1513) rotate(0 -97.04895391513674 -75.84617429710897)"><path d="M-164.04 -141.55 C-171.03 -145.72, -180.18 -146.4, -192.57 -150.83 M-164.04 -141.55 C-172.67 -145.51, -182.32 -147.35, -192.57 -150.83" stroke="#1e1e1e" stroke-width="1" fill="none"></path></g><g transform="translate(279.86250874118923 1513) rotate(0 -97.04895391513674 -75.84617429710897)"><path d="M-176.68 -125.39 C-180.35 -133.89, -186.03 -139, -192.57 -150.83 M-176.68 -125.39 C-181.27 -134.67, -186.74 -141.84, -192.57 -150.83" stroke="#1e1e1e" stroke-width="1" fill="none"></path></g></g><mask></mask><g stroke-linecap="round"><g transform="translate(279.86250874118923 1512) rotate(0 -95.89283158730723 -90.24026596879548)"><path d="M-0.66 0.42 C-32.8 -29.38, -160.35 -149.25, -192.36 -179.2 M1.19 -0.41 C-31.09 -30.51, -160.55 -150.76, -192.98 -180.9" stroke="#1e1e1e" stroke-width="1" fill="none"></path></g><g transform="translate(279.86250874118923 1512) rotate(0 -95.89283158730723 -90.24026596879548)"><path d="M-165.34 -169.23 C-174 -172.28, -182.74 -176.9, -192.98 -180.9 M-165.34 -169.23 C-174.42 -174.61, -184.83 -178.49, -192.98 -180.9" stroke="#1e1e1e" stroke-width="1" fill="none"></path></g><g transform="translate(279.86250874118923 1512) rotate(0 -95.89283158730723 -90.24026596879548)"><path d="M-179.31 -154.19 C-183.17 -162.28, -187.17 -172.01, -192.98 -180.9 M-179.31 -154.19 C-183.19 -164.92, -188.55 -174.24, -192.98 -180.9" stroke="#1e1e1e" stroke-width="1" fill="none"></path></g></g><mask></mask><g stroke-linecap="round"><g transform="translate(281.86250874118923 1507) rotate(0 172.23601270057225 -120.95375860286867)"><path d="M-0.61 -1.01 C57 -41.4, 287.42 -200.93, 345.09 -241.25 M1.26 1.08 C58.78 -39.14, 286.92 -202.44, 344.18 -242.98" stroke="#1e1e1e" stroke-width="1" fill="none"></path></g><g transform="translate(281.86250874118923 1507) rotate(0 172.23601270057225 -120.95375860286867)"><path d="M327.17 -218.27 C329.55 -224.25, 336.75 -229.93, 344.18 -242.98 M327.17 -218.27 C331.15 -223.57, 333.85 -229.68, 344.18 -242.98" stroke="#1e1e1e" stroke-width="1" fill="none"></path></g><g transform="translate(281.86250874118923 1507) rotate(0 172.23601270057225 -120.95375860286867)"><path d="M315.27 -234.99 C320.78 -236.71, 330.97 -238.18, 344.18 -242.98 M315.27 -234.99 C321.82 -236.62, 327.14 -239.07, 344.18 -242.98" stroke="#1e1e1e" stroke-width="1" fill="none"></path></g></g><mask></mask><g stroke-linecap="round"><g transform="translate(276.86250874118923 1514) rotate(0 32.966823857613235 50.304430832676644)"><path d="M0.18 -0.4 C11.1 16.51, 53.88 83.98, 64.96 100.82 M-1.19 -1.65 C10.15 15.49, 55.89 85.03, 67.12 102.26" stroke="#1e1e1e" stroke-width="1" fill="none"></path></g><g transform="translate(276.86250874118923 1514) rotate(0 32.966823857613235 50.304430832676644)"><path d="M43.09 84.3 C48.35 87.02, 54.71 94.27, 67.12 102.26 M43.09 84.3 C50.39 88.35, 55.22 93.56, 67.12 102.26" stroke="#1e1e1e" stroke-width="1" fill="none"></path></g><g transform="translate(276.86250874118923 1514) rotate(0 32.966823857613235 50.304430832676644)"><path d="M60.25 73.06 C61.16 78.61, 63.24 88.67, 67.12 102.26 M60.25 73.06 C63.02 79.99, 63.26 88.2, 67.12 102.26" stroke="#1e1e1e" stroke-width="1" fill="none"></path></g></g><mask></mask><g stroke-linecap="round"><g transform="translate(274.86250874118923 1514) rotate(0 -105.0746112554225 -15.961987343791861)"><path d="M-0.03 -0.17 C-35.04 -5.44, -174.97 -26.52, -209.93 -31.86 M-0.38 0.34 C-35.42 -4.99, -175.2 -26.88, -210.11 -32.27" stroke="#1e1e1e" stroke-width="1" fill="none"></path></g><g transform="translate(274.86250874118923 1514) rotate(0 -105.0746112554225 -15.961987343791861)"><path d="M-180.68 -38.07 C-190.73 -36.04, -199.86 -33.84, -210.11 -32.27 M-180.68 -38.07 C-187.38 -36.94, -194.54 -35.3, -210.11 -32.27" stroke="#1e1e1e" stroke-width="1" fill="none"></path></g><g transform="translate(274.86250874118923 1514) rotate(0 -105.0746112554225 -15.961987343791861)"><path d="M-183.84 -17.8 C-192.8 -22.46, -200.89 -26.95, -210.11 -32.27 M-183.84 -17.8 C-189.85 -21.38, -196.27 -24.45, -210.11 -32.27" stroke="#1e1e1e" stroke-width="1" fill="none"></path></g></g><mask></mask><g transform="translate(56.192508664895286 1339.5) rotate(0 5.079999923706055 12.5)"><text x="0" y="0" font-family="Virgil, Segoe UI Emoji" font-size="20px" fill="#1e1e1e" text-anchor="start" style="white-space: pre;" direction="ltr" dominant-baseline="text-before-edge">b</text></g><g transform="translate(659.1925086648953 1271.5) rotate(0 6.670000076293945 12.5)"><text x="0" y="0" font-family="Virgil, Segoe UI Emoji" font-size="20px" fill="#1e1e1e" text-anchor="start" style="white-space: pre;" direction="ltr" dominant-baseline="text-before-edge">a</text></g><g transform="translate(635.1925086648953 1244.5) rotate(0 6.670000076293945 12.5)"><text x="0" y="0" font-family="Virgil, Segoe UI Emoji" font-size="20px" fill="#1e1e1e" text-anchor="start" style="white-space: pre;" direction="ltr" dominant-baseline="text-before-edge">a</text></g><g transform="translate(73.78250881748318 1297.5) rotate(0 5.079999923706055 12.5)"><text x="0" y="0" font-family="Virgil, Segoe UI Emoji" font-size="20px" fill="#1e1e1e" text-anchor="start" style="white-space: pre;" direction="ltr" dominant-baseline="text-before-edge">b</text></g><g transform="translate(1244.8625087411892 10) rotate(0 112.9900131225586 12.5)"><text x="0" y="0" font-family="Virgil, Segoe UI Emoji" font-size="20px" fill="#1e1e1e" text-anchor="start" style="white-space: pre;" direction="ltr" dominant-baseline="text-before-edge">&lt;h2&gt;Hello WORLD&lt;/h2&gt;</text></g><g transform="translate(1477.8724956186306 96.5) rotate(0 62.06999588012695 12.5)"><text x="0" y="0" font-family="Virgil, Segoe UI Emoji" font-size="20px" fill="#1e1e1e" text-anchor="start" style="white-space: pre;" direction="ltr" dominant-baseline="text-before-edge">Hello WORLD</text></g><g stroke-linecap="round"><g transform="translate(1480.8625087411892 43) rotate(0 27.011104388645435 20.99005328258272)"><path d="M0.19 0.17 C9.21 7.18, 45.19 34.77, 54.19 41.72 M-0.17 -0.08 C8.8 7.01, 44.96 35.01, 53.99 42.06" stroke="#1e1e1e" stroke-width="1" fill="none"></path></g><g transform="translate(1480.8625087411892 43) rotate(0 27.011104388645435 20.99005328258272)"><path d="M25.44 32.86 C35.02 36.16, 43.47 39.15, 53.99 42.06 M25.44 32.86 C32.71 34.83, 40.42 37.7, 53.99 42.06" stroke="#1e1e1e" stroke-width="1" fill="none"></path></g><g transform="translate(1480.8625087411892 43) rotate(0 27.011104388645435 20.99005328258272)"><path d="M38.03 16.66 C43.45 25.26, 47.81 33.53, 53.99 42.06 M38.03 16.66 C42.01 22.89, 46.45 30, 53.99 42.06" stroke="#1e1e1e" stroke-width="1" fill="none"></path></g></g><mask></mask><g transform="translate(1551.8625087411892 45) rotate(0 66.01000213623047 12.5)"><text x="0" y="0" font-family="Virgil, Segoe UI Emoji" font-size="20px" fill="#1e1e1e" text-anchor="start" style="white-space: pre;" direction="ltr" dominant-baseline="text-before-edge">data cleaning</text></g><g transform="translate(1688.7925128610623 180.5) rotate(0 74.55000305175781 12.5)"><text x="0" y="0" font-family="Virgil, Segoe UI Emoji" font-size="20px" fill="#1e1e1e" text-anchor="start" style="white-space: pre;" direction="ltr" dominant-baseline="text-before-edge">[Hello, WORLD]</text></g><g stroke-linecap="round"><g transform="translate(1624.851404352541 121.00994671741773) rotate(0 39.61326193424702 23.84186043497175)"><path d="M-0.24 -0.01 C12.93 7.99, 66.27 39.62, 79.47 47.67 M0.54 -0.45 C13.65 7.64, 66.31 40.14, 79.32 48.13" stroke="#1e1e1e" stroke-width="1" fill="none"></path></g><g transform="translate(1624.851404352541 121.00994671741773) rotate(0 39.61326193424702 23.84186043497175)"><path d="M49.93 42.08 C61.29 45.35, 72.12 46.71, 79.32 48.13 M49.93 42.08 C60.86 44.61, 71.55 46.52, 79.32 48.13" stroke="#1e1e1e" stroke-width="1" fill="none"></path></g><g transform="translate(1624.851404352541 121.00994671741773) rotate(0 39.61326193424702 23.84186043497175)"><path d="M60.7 24.61 C67.82 34.63, 74.47 42.77, 79.32 48.13 M60.7 24.61 C67.75 33.49, 74.53 41.74, 79.32 48.13" stroke="#1e1e1e" stroke-width="1" fill="none"></path></g></g><mask></mask><g transform="translate(1668.8525066049588 106.5) rotate(0 63.83000183105469 12.5)"><text x="0" y="0" font-family="Virgil, Segoe UI Emoji" font-size="20px" fill="#1e1e1e" text-anchor="start" style="white-space: pre;" direction="ltr" dominant-baseline="text-before-edge">tokenization </text></g><g transform="translate(1890.3125056894314 267.5) rotate(0 62.94000244140625 12.5)"><text x="0" y="0" font-family="Virgil, Segoe UI Emoji" font-size="20px" fill="#1e1e1e" text-anchor="start" style="white-space: pre;" direction="ltr" dominant-baseline="text-before-edge">[hello, world]</text></g><g stroke-linecap="round"><g transform="translate(1841.9454425327003 207.09840171527503) rotate(0 35.25153170866815 23.623436847143694)"><path d="M0.12 0.32 C11.97 8.12, 59.08 38.93, 70.89 46.74 M-0.39 0.07 C11.43 7.94, 58.75 39.23, 70.62 47.18" stroke="#1e1e1e" stroke-width="1" fill="none"></path></g><g transform="translate(1841.9454425327003 207.09840171527503) rotate(0 35.25153170866815 23.623436847143694)"><path d="M41.46 40.11 C49.64 42.28, 56.07 44.27, 70.62 47.18 M41.46 40.11 C51.12 42.66, 59.98 44.46, 70.62 47.18" stroke="#1e1e1e" stroke-width="1" fill="none"></path></g><g transform="translate(1841.9454425327003 207.09840171527503) rotate(0 35.25153170866815 23.623436847143694)"><path d="M52.82 23.03 C58.02 29.66, 61.49 36.1, 70.62 47.18 M52.82 23.03 C58.92 31.04, 64.14 38.32, 70.62 47.18" stroke="#1e1e1e" stroke-width="1" fill="none"></path></g></g><mask></mask><g transform="translate(1902.0325069101345 198.5) rotate(0 51.62000274658203 12.5)"><text x="0" y="0" font-family="Virgil, Segoe UI Emoji" font-size="20px" fill="#1e1e1e" text-anchor="start" style="white-space: pre;" direction="ltr" dominant-baseline="text-before-edge">lower case</text></g><g transform="translate(2083.8625087411892 551) rotate(0 42.769996643066406 12.5)"><text x="0" y="0" font-family="Virgil, Segoe UI Emoji" font-size="20px" fill="#1e1e1e" text-anchor="start" style="white-space: pre;" direction="ltr" dominant-baseline="text-before-edge">TF/IDF </text></g><g transform="translate(1899.8625087411892 649) rotate(0 225.1599884033203 125)"><text x="0" y="0" font-family="Virgil, Segoe UI Emoji" font-size="20px" fill="#1e1e1e" text-anchor="start" style="white-space: pre;" direction="ltr" dominant-baseline="text-before-edge">The best pasta recipe with pesto </text><text x="0" y="25" font-family="Virgil, Segoe UI Emoji" font-size="20px" fill="#1e1e1e" text-anchor="start" style="white-space: pre;" direction="ltr" dominant-baseline="text-before-edge">Delicious carbonara pasta recipe</text><text x="0" y="50" font-family="Virgil, Segoe UI Emoji" font-size="20px" fill="#1e1e1e" text-anchor="start" style="white-space: pre;" direction="ltr" dominant-baseline="text-before-edge"></text><text x="0" y="75" font-family="Virgil, Segoe UI Emoji" font-size="20px" fill="#1e1e1e" text-anchor="start" style="white-space: pre;" direction="ltr" dominant-baseline="text-before-edge"></text><text x="0" y="100" font-family="Virgil, Segoe UI Emoji" font-size="20px" fill="#1e1e1e" text-anchor="start" style="white-space: pre;" direction="ltr" dominant-baseline="text-before-edge">TF-IDF = TF X log(N/df)</text><text x="0" y="125" font-family="Virgil, Segoe UI Emoji" font-size="20px" fill="#1e1e1e" text-anchor="start" style="white-space: pre;" direction="ltr" dominant-baseline="text-before-edge"></text><text x="0" y="150" font-family="Virgil, Segoe UI Emoji" font-size="20px" fill="#1e1e1e" text-anchor="start" style="white-space: pre;" direction="ltr" dominant-baseline="text-before-edge">TF -  Term Frequency</text><text x="0" y="175" font-family="Virgil, Segoe UI Emoji" font-size="20px" fill="#1e1e1e" text-anchor="start" style="white-space: pre;" direction="ltr" dominant-baseline="text-before-edge">N - total number of documents</text><text x="0" y="200" font-family="Virgil, Segoe UI Emoji" font-size="20px" fill="#1e1e1e" text-anchor="start" style="white-space: pre;" direction="ltr" dominant-baseline="text-before-edge">df - number of documents containing the term</text><text x="0" y="225" font-family="Virgil, Segoe UI Emoji" font-size="20px" fill="#1e1e1e" text-anchor="start" style="white-space: pre;" direction="ltr" dominant-baseline="text-before-edge"></text></g><g stroke-linecap="round"><g transform="translate(2546.8625087411892 582) rotate(0 0.023685654393375444 150.49165181437525)"><path d="M-0.05 -0.04 C-0.06 50.13, -0.04 250.81, -0.02 300.99 M0.19 -0.19 C0.16 50.01, -0.11 251.01, -0.14 301.18" stroke="#1e1e1e" stroke-width="1" fill="none"></path></g></g><mask></mask><g stroke-linecap="round"><g transform="translate(2614.8388230867986 582.1772711856242) rotate(0 -0.02355215437546576 150.54293576480086)"><path d="M-0.1 0.13 C-0.13 50.3, -0.03 250.73, -0.03 300.88 M0.11 0.08 C0.05 50.26, -0.1 250.82, -0.16 301.01" stroke="#1e1e1e" stroke-width="1" fill="none"></path></g></g><mask></mask><g stroke-linecap="round"><g transform="translate(2680.8388230867986 577.5083481856245) rotate(0 0.03406995601380913 150.51695556108848)"><path d="M0.11 0.06 C0.08 50.23, -0.06 250.92, -0.1 301.07 M0 -0.04 C0.01 50.08, 0.15 250.66, 0.17 300.85" stroke="#1e1e1e" stroke-width="1" fill="none"></path></g></g><mask></mask><g stroke-linecap="round"><g transform="translate(2410.8388230867986 584.5083481856245) rotate(0 0.08820908717552811 150.55907715415992)"><path d="M0.14 0.04 C0.14 50.2, 0.15 250.84, 0.15 301 M0.03 -0.07 C0.02 50.12, 0.09 250.99, 0.1 301.19" stroke="#1e1e1e" stroke-width="1" fill="none"></path></g></g><mask></mask><g transform="translate(2454.8625087411892 542) rotate(0 21.75 12.5)"><text x="0" y="0" font-family="Virgil, Segoe UI Emoji" font-size="20px" fill="#1e1e1e" text-anchor="start" style="white-space: pre;" direction="ltr" dominant-baseline="text-before-edge">term</text></g><g transform="translate(2561.1125087411892 554.5) rotate(0 18.959999084472656 12.5)"><text x="0" y="0" font-family="Virgil, Segoe UI Emoji" font-size="20px" fill="#1e1e1e" text-anchor="start" style="white-space: pre;" direction="ltr" dominant-baseline="text-before-edge">doc1</text></g><g transform="translate(2625.9025096567166 552.5) rotate(0 23.369998931884766 12.5)"><text x="0" y="0" font-family="Virgil, Segoe UI Emoji" font-size="20px" fill="#1e1e1e" text-anchor="start" style="white-space: pre;" direction="ltr" dominant-baseline="text-before-edge">doc2</text></g><g transform="translate(2457.8625087411892 602) rotate(0 21.6299991607666 12.5)"><text x="0" y="0" font-family="Virgil, Segoe UI Emoji" font-size="20px" fill="#1e1e1e" text-anchor="start" style="white-space: pre;" direction="ltr" dominant-baseline="text-before-edge">best</text></g><g transform="translate(2433.2325095804226 632.5) rotate(0 48.91999816894531 12.5)"><text x="0" y="0" font-family="Virgil, Segoe UI Emoji" font-size="20px" fill="#1e1e1e" text-anchor="start" style="white-space: pre;" direction="ltr" dominant-baseline="text-before-edge">carbonara</text></g><g transform="translate(2438.942510572244 661.5) rotate(0 39.84000015258789 12.5)"><text x="0" y="0" font-family="Virgil, Segoe UI Emoji" font-size="20px" fill="#1e1e1e" text-anchor="start" style="white-space: pre;" direction="ltr" dominant-baseline="text-before-edge">delicious</text></g><g transform="translate(2446.8625087411892 690) rotate(0 29.350000381469727 12.5)"><text x="0" y="0" font-family="Virgil, Segoe UI Emoji" font-size="20px" fill="#1e1e1e" text-anchor="start" style="white-space: pre;" direction="ltr" dominant-baseline="text-before-edge">pasta</text></g><g transform="translate(2448.8625087411892 721) rotate(0 27.020000457763672 12.5)"><text x="0" y="0" font-family="Virgil, Segoe UI Emoji" font-size="20px" fill="#1e1e1e" text-anchor="start" style="white-space: pre;" direction="ltr" dominant-baseline="text-before-edge">pesto</text></g><g transform="translate(2444.8625087411892 754) rotate(0 27.380001068115234 12.5)"><text x="0" y="0" font-family="Virgil, Segoe UI Emoji" font-size="20px" fill="#1e1e1e" text-anchor="start" style="white-space: pre;" direction="ltr" dominant-baseline="text-before-edge">recipe</text></g><g transform="translate(2454.8625087411892 789) rotate(0 16.059999465942383 12.5)"><text x="0" y="0" font-family="Virgil, Segoe UI Emoji" font-size="20px" fill="#1e1e1e" text-anchor="start" style="white-space: pre;" direction="ltr" dominant-baseline="text-before-edge">the</text></g><g transform="translate(2453.8625087411892 816) rotate(0 18.8700008392334 12.5)"><text x="0" y="0" font-family="Virgil, Segoe UI Emoji" font-size="20px" fill="#1e1e1e" text-anchor="start" style="white-space: pre;" direction="ltr" dominant-baseline="text-before-edge">with</text></g><g transform="translate(2571.8625087411892 599) rotate(0 5.980000019073486 12.5)"><text x="0" y="0" font-family="Virgil, Segoe UI Emoji" font-size="20px" fill="#1e1e1e" text-anchor="start" style="white-space: pre;" direction="ltr" dominant-baseline="text-before-edge">X</text></g><g transform="translate(2647.8825087221157 629.5) rotate(0 5.980000019073486 12.5)"><text x="0" y="0" font-family="Virgil, Segoe UI Emoji" font-size="20px" fill="#1e1e1e" text-anchor="start" style="white-space: pre;" direction="ltr" dominant-baseline="text-before-edge">X</text></g><g transform="translate(2646.8825087221157 656.5) rotate(0 5.980000019073486 12.5)"><text x="0" y="0" font-family="Virgil, Segoe UI Emoji" font-size="20px" fill="#1e1e1e" text-anchor="start" style="white-space: pre;" direction="ltr" dominant-baseline="text-before-edge">X</text></g><g transform="translate(2644.8825087221157 687.5) rotate(0 5.980000019073486 12.5)"><text x="0" y="0" font-family="Virgil, Segoe UI Emoji" font-size="20px" fill="#1e1e1e" text-anchor="start" style="white-space: pre;" direction="ltr" dominant-baseline="text-before-edge">X</text></g><g transform="translate(2572.8825087221157 686.5) rotate(0 5.980000019073486 12.5)"><text x="0" y="0" font-family="Virgil, Segoe UI Emoji" font-size="20px" fill="#1e1e1e" text-anchor="start" style="white-space: pre;" direction="ltr" dominant-baseline="text-before-edge">X</text></g><g transform="translate(2573.8825087221157 718.5) rotate(0 5.980000019073486 12.5)"><text x="0" y="0" font-family="Virgil, Segoe UI Emoji" font-size="20px" fill="#1e1e1e" text-anchor="start" style="white-space: pre;" direction="ltr" dominant-baseline="text-before-edge">X</text></g><g transform="translate(2570.8825087221157 750.5) rotate(0 5.980000019073486 12.5)"><text x="0" y="0" font-family="Virgil, Segoe UI Emoji" font-size="20px" fill="#1e1e1e" text-anchor="start" style="white-space: pre;" direction="ltr" dominant-baseline="text-before-edge">X</text></g><g transform="translate(2569.8825087221157 784.5) rotate(0 5.980000019073486 12.5)"><text x="0" y="0" font-family="Virgil, Segoe UI Emoji" font-size="20px" fill="#1e1e1e" text-anchor="start" style="white-space: pre;" direction="ltr" dominant-baseline="text-before-edge">X</text></g><g transform="translate(2568.8825087221157 810.5) rotate(0 5.980000019073486 12.5)"><text x="0" y="0" font-family="Virgil, Segoe UI Emoji" font-size="20px" fill="#1e1e1e" text-anchor="start" style="white-space: pre;" direction="ltr" dominant-baseline="text-before-edge">X</text></g><g transform="translate(2639.8825087221157 752.5) rotate(0 5.980000019073486 12.5)"><text x="0" y="0" font-family="Virgil, Segoe UI Emoji" font-size="20px" fill="#1e1e1e" text-anchor="start" style="white-space: pre;" direction="ltr" dominant-baseline="text-before-edge">X</text></g><g transform="translate(2388.8625087411892 1013) rotate(0 201.30999755859375 75)"><text x="0" y="0" font-family="Virgil, Segoe UI Emoji" font-size="20px" fill="#1e1e1e" text-anchor="start" style="white-space: pre;" direction="ltr" dominant-baseline="text-before-edge">TF-IDF(pasta1) = 1/6 x log(2/2) = 0</text><text x="0" y="25" font-family="Virgil, Segoe UI Emoji" font-size="20px" fill="#1e1e1e" text-anchor="start" style="white-space: pre;" direction="ltr" dominant-baseline="text-before-edge">TF-IDF(pasta2) = 1/4 x log(2/2) = 0</text><text x="0" y="50" font-family="Virgil, Segoe UI Emoji" font-size="20px" fill="#1e1e1e" text-anchor="start" style="white-space: pre;" direction="ltr" dominant-baseline="text-before-edge"></text><text x="0" y="75" font-family="Virgil, Segoe UI Emoji" font-size="20px" fill="#1e1e1e" text-anchor="start" style="white-space: pre;" direction="ltr" dominant-baseline="text-before-edge">TF-IDF(pesto1) = 1/6 x log(2/1) = 0.050</text><text x="0" y="100" font-family="Virgil, Segoe UI Emoji" font-size="20px" fill="#1e1e1e" text-anchor="start" style="white-space: pre;" direction="ltr" dominant-baseline="text-before-edge">TF-IDF(pesto2) = 0/4 x log(2/1) = 0</text><text x="0" y="125" font-family="Virgil, Segoe UI Emoji" font-size="20px" fill="#1e1e1e" text-anchor="start" style="white-space: pre;" direction="ltr" dominant-baseline="text-before-edge">  </text></g><g transform="translate(1606.8625087411892 1011) rotate(0 144.75001525878906 75)"><text x="0" y="0" font-family="Virgil, Segoe UI Emoji" font-size="20px" fill="#1e1e1e" text-anchor="start" style="white-space: pre;" direction="ltr" dominant-baseline="text-before-edge">Byte-Pair Encoding </text><text x="0" y="25" font-family="Virgil, Segoe UI Emoji" font-size="20px" fill="#1e1e1e" text-anchor="start" style="white-space: pre;" direction="ltr" dominant-baseline="text-before-edge"></text><text x="0" y="50" font-family="Virgil, Segoe UI Emoji" font-size="20px" fill="#1e1e1e" text-anchor="start" style="white-space: pre;" direction="ltr" dominant-baseline="text-before-edge">example: Hello, Hello, Hloa</text><text x="0" y="75" font-family="Virgil, Segoe UI Emoji" font-size="20px" fill="#1e1e1e" text-anchor="start" style="white-space: pre;" direction="ltr" dominant-baseline="text-before-edge">1. Step: H,e,l,l,o H,e,l,l,o, H,o,l,a</text><text x="0" y="100" font-family="Virgil, Segoe UI Emoji" font-size="20px" fill="#1e1e1e" text-anchor="start" style="white-space: pre;" direction="ltr" dominant-baseline="text-before-edge">2. lo -&gt; X --- HelX, HelX, HXa</text><text x="0" y="125" font-family="Virgil, Segoe UI Emoji" font-size="20px" fill="#1e1e1e" text-anchor="start" style="white-space: pre;" direction="ltr" dominant-baseline="text-before-edge">2. he -&gt; Y --- YlX, YlX, HXa</text></g></svg>